<svg xmlns="http://www.w3.org/2000/svg" width="43.27" height="34.326" viewBox="0 0 43.27 34.326">
  <g id="Group_44" data-name="Group 44" transform="translate(-14.592 -83.149)">
    <path id="Path_4400" data-name="Path 4400" d="M36.2,117.467H16.691c-.258,0-.513.014-.767-.01a1.312,1.312,0,0,1-1.066-2.119c1.273-2.023,2.566-4.028,3.849-6.044q8.008-12.558,16.029-25.106a2.51,2.51,0,0,1,1.252-.984c.757-.227,1.286.268,1.7.918q5,7.894,10.037,15.764,4.85,7.615,9.707,15.224c.327.513.623,1.022.261,1.627a1.619,1.619,0,0,1-1.555.736Q46.173,117.464,36.2,117.467Zm17.549-2.738L36.215,87.208,18.676,114.729Z" transform="translate(0)"/>
    <path id="Path_4401" data-name="Path 4401" d="M50.857,111.85H15.779L33.318,84.329Zm-14.8-20.112a2.4,2.4,0,0,0-1.362-2.219,2.793,2.793,0,0,0-3.092.2,2.35,2.35,0,0,0-1,2.456c.093.6.169,1.207.244,1.813.427,3.354.826,6.707,1.3,10.054a1.473,1.473,0,0,0,.822.987,1.611,1.611,0,0,0,1.252-.272c.244-.165.341-.643.385-1,.258-1.933.478-3.866.709-5.8C35.564,95.9,35.8,93.854,36.056,91.738Zm-2.735,14.206a1.951,1.951,0,0,0-2.057,1.847,2.057,2.057,0,0,0,4.1.014A1.933,1.933,0,0,0,33.321,105.944Z" transform="translate(2.897 2.879)" fill="#ffe900"/>
    <path id="Path_4402" data-name="Path 4402" d="M25.57,88.323c-.251,2.115-.492,4.165-.736,6.219-.23,1.933-.451,3.866-.709,5.8-.045.354-.141.832-.385,1a1.611,1.611,0,0,1-1.252.272,1.473,1.473,0,0,1-.822-.987c-.478-3.347-.877-6.7-1.3-10.054-.076-.605-.151-1.211-.244-1.813a2.35,2.35,0,0,1,1-2.456,2.793,2.793,0,0,1,3.092-.2A2.4,2.4,0,0,1,25.57,88.323Z" transform="translate(13.383 6.295)"/>
    <path id="Path_4403" data-name="Path 4403" d="M22.338,90.613a1.933,1.933,0,0,1,2.04,1.861,2.059,2.059,0,1,1-2.04-1.861Z" transform="translate(13.881 18.21)"/>
  </g>
</svg>
