<svg xmlns="http://www.w3.org/2000/svg" viewBox="0 0 77.39 51.4"><defs><style>.cls-1{fill:#fff;}</style></defs><g id="Layer_2" data-name="Layer 2"><g id="Layer_1-2" data-name="Layer 1"><path class="cls-1" d="M10.42,32.83a3.34,3.34,0,0,1,1.31-1.35,3.93,3.93,0,0,1,2-.49,3.7,3.7,0,0,1,2.36.75,3.37,3.37,0,0,1,1.23,2H15a1.45,1.45,0,0,0-1.38-.87,1.42,1.42,0,0,0-1.15.51,2.45,2.45,0,0,0,0,2.77,1.42,1.42,0,0,0,1.15.51,1.48,1.48,0,0,0,.82-.22,1.44,1.44,0,0,0,.56-.65h2.24a3.37,3.37,0,0,1-1.23,2,3.7,3.7,0,0,1-2.36.75,3.83,3.83,0,0,1-2-.49,3.34,3.34,0,0,1-1.31-1.35,4.47,4.47,0,0,1,0-4Z"/><path class="cls-1" d="M18.27,34a2.57,2.57,0,0,1,.91-1.06,2.35,2.35,0,0,1,1.3-.37,2.21,2.21,0,0,1,1.06.24,1.69,1.69,0,0,1,.69.66V32.6h2.08v6H22.23v-.82a1.76,1.76,0,0,1-.7.65,2.09,2.09,0,0,1-1.05.25,2.35,2.35,0,0,1-1.3-.37,2.6,2.6,0,0,1-.91-1.07,3.78,3.78,0,0,1-.34-1.62A3.72,3.72,0,0,1,18.27,34Zm3.65.71a1,1,0,0,0-.77-.33,1,1,0,0,0-.78.33,1.24,1.24,0,0,0-.31.91,1.29,1.29,0,0,0,.31.91,1,1,0,0,0,.78.33,1,1,0,0,0,.77-.33,1.49,1.49,0,0,0,0-1.82Z"/><path class="cls-1" d="M31,33.23a2.69,2.69,0,0,1,.61,1.86v3.47H29.57v-3.2a1.14,1.14,0,0,0-.27-.8.93.93,0,0,0-.71-.29,1,1,0,0,0-.74.29,1.18,1.18,0,0,0-.26.8v3.2H25.5v-6h2.09v.85a2,2,0,0,1,.74-.65,2.21,2.21,0,0,1,1.08-.25A2.08,2.08,0,0,1,31,33.23Z"/><path class="cls-1" d="M38.34,33.23a2.74,2.74,0,0,1,.6,1.86v3.47H36.86v-3.2a1.14,1.14,0,0,0-.27-.8.91.91,0,0,0-.71-.29.94.94,0,0,0-.73.29,1.14,1.14,0,0,0-.27.8v3.2H32.8v-6h2.08v.85a2,2,0,0,1,.75-.65,2.2,2.2,0,0,1,1.07-.25A2.1,2.1,0,0,1,38.34,33.23Z"/><path class="cls-1" d="M40.09,34A2.5,2.5,0,0,1,41,32.9a2.34,2.34,0,0,1,1.29-.37,2.25,2.25,0,0,1,1.07.24,1.82,1.82,0,0,1,.69.66V32.6h2.08v6H44.05v-.82a1.83,1.83,0,0,1-.7.65,2.1,2.1,0,0,1-1.06.25A2.34,2.34,0,0,1,41,38.27a2.52,2.52,0,0,1-.91-1.07,3.64,3.64,0,0,1-.34-1.62A3.58,3.58,0,0,1,40.09,34Zm3.64.71a1,1,0,0,0-.77-.33,1,1,0,0,0-.77.33,1.24,1.24,0,0,0-.31.91,1.29,1.29,0,0,0,.31.91,1,1,0,0,0,.77.33,1,1,0,0,0,.77-.33,1.45,1.45,0,0,0,0-1.82Z"/><path class="cls-1" d="M50.1,32.77a2,2,0,0,1,1-.24,2.34,2.34,0,0,1,1.29.37A2.59,2.59,0,0,1,53.36,34a3.72,3.72,0,0,1,.33,1.62,3.78,3.78,0,0,1-.33,1.62,2.62,2.62,0,0,1-.92,1.07,2.34,2.34,0,0,1-1.29.37,2.14,2.14,0,0,1-1-.24,1.69,1.69,0,0,1-.69-.66v.82H47.32V30.7h2.09v2.73A1.63,1.63,0,0,1,50.1,32.77Zm1.16,1.9a1,1,0,0,0-.77-.33,1,1,0,0,0-.77.33,1.49,1.49,0,0,0,0,1.82,1,1,0,0,0,.77.33,1,1,0,0,0,.77-.33,1.29,1.29,0,0,0,.31-.91A1.24,1.24,0,0,0,51.26,34.67Z"/><path class="cls-1" d="M54.72,31.74a1,1,0,0,1-.34-.76,1,1,0,0,1,.34-.77,1.4,1.4,0,0,1,1.76,0,1,1,0,0,1,.34.77,1,1,0,0,1-.34.76,1.4,1.4,0,0,1-1.76,0Zm1.92.86v6H54.55v-6Z"/><path class="cls-1" d="M58.93,38.37a2.34,2.34,0,0,1-1-.75,1.88,1.88,0,0,1-.41-1.06h2a.61.61,0,0,0,.26.44.93.93,0,0,0,.56.16.68.68,0,0,0,.4-.1.34.34,0,0,0-.1-.61,5.46,5.46,0,0,0-.8-.24,7.39,7.39,0,0,1-1.07-.28,1.89,1.89,0,0,1-.74-.52,1.49,1.49,0,0,1-.31-1,1.67,1.67,0,0,1,.29-1,1.94,1.94,0,0,1,.84-.69,3.22,3.22,0,0,1,1.35-.25,2.76,2.76,0,0,1,1.84.57,2.26,2.26,0,0,1,.77,1.51H61a.67.67,0,0,0-.25-.44.85.85,0,0,0-.52-.16.7.7,0,0,0-.39.1.31.31,0,0,0-.14.27.35.35,0,0,0,.25.32,4.45,4.45,0,0,0,.79.23,5.83,5.83,0,0,1,1.07.31,1.9,1.9,0,0,1,.76.54,1.53,1.53,0,0,1,.32,1,1.57,1.57,0,0,1-.3.94,2.07,2.07,0,0,1-.86.65,3.29,3.29,0,0,1-1.31.24A3.63,3.63,0,0,1,58.93,38.37Z"/><path class="cls-1" d="M31.24,50.9a3.68,3.68,0,0,1-1.4-1.37,4.1,4.1,0,0,1,0-4,3.68,3.68,0,0,1,1.4-1.37,4.09,4.09,0,0,1,3.88,0,3.63,3.63,0,0,1,1.38,1.37,4.1,4.1,0,0,1,0,4,3.59,3.59,0,0,1-1.39,1.37,4,4,0,0,1-3.87,0Zm3.2-2a2.36,2.36,0,0,0,0-2.8,1.82,1.82,0,0,0-2.53,0,2.38,2.38,0,0,0,0,2.81,1.63,1.63,0,0,0,1.27.51A1.59,1.59,0,0,0,34.44,48.94Z"/><path class="cls-1" d="M38.11,44.5a1,1,0,0,1-.33-.76,1,1,0,0,1,.33-.77,1.25,1.25,0,0,1,.89-.31,1.23,1.23,0,0,1,.88.31,1,1,0,0,1,.34.77,1,1,0,0,1-.34.76,1.23,1.23,0,0,1-.88.31A1.25,1.25,0,0,1,38.11,44.5Zm1.92.86v6H38v-6Z"/><path class="cls-1" d="M43.31,43.46v7.86H41.23V43.46Z"/><path class="cls-1" d="M0,6V.45H9.31V22.54H3.11V6Z"/><path class="cls-1" d="M14.44,3q2.12-3,6.65-3t6.66,3q2.13,3,2.13,8.19t-2.11,8.25q-2.11,3-6.68,3t-6.66-3q-2.1-3-2.1-8.25T14.44,3Zm9,4a2.28,2.28,0,0,0-2.36-1.44A2.29,2.29,0,0,0,18.73,7a11.71,11.71,0,0,0-.57,4.15,12.31,12.31,0,0,0,.56,4.22,2.28,2.28,0,0,0,2.37,1.43,2.28,2.28,0,0,0,2.37-1.43A12.07,12.07,0,0,0,24,11.18,11.71,11.71,0,0,0,23.45,7Z"/><path class="cls-1" d="M34.3,3q2.12-3,6.64-3t6.67,3q2.13,3,2.13,8.19t-2.12,8.25c-1.41,2-3.63,3-6.68,3s-5.26-1-6.66-3-2.1-4.74-2.1-8.25S32.89,5,34.3,3Zm9,4a2.28,2.28,0,0,0-2.36-1.44A2.28,2.28,0,0,0,38.59,7,11.45,11.45,0,0,0,38,11.18a12.31,12.31,0,0,0,.56,4.22,2.28,2.28,0,0,0,2.37,1.43,2.3,2.3,0,0,0,2.38-1.43,12.35,12.35,0,0,0,.55-4.22A11.71,11.71,0,0,0,43.3,7Z"/><path class="cls-1" d="M53.09,2.21a6,6,0,0,1,7.59,0,5.12,5.12,0,0,1,1.45,3.92,5.17,5.17,0,0,1-1.45,3.92,5.91,5.91,0,0,1-7.57,0,5.11,5.11,0,0,1-1.47-3.92A5.12,5.12,0,0,1,53.09,2.21Zm2.54,3.92C55.63,7.34,56,8,56.87,8a1.12,1.12,0,0,0,1-.46,2.21,2.21,0,0,0,.35-1.36,2.25,2.25,0,0,0-.35-1.36,1.14,1.14,0,0,0-1-.45C56,4.32,55.63,4.93,55.63,6.13ZM73.1,1.18,61.64,22.54H56L67.41,1.18ZM68.4,13.64a5.33,5.33,0,0,1,3.79-1.37A5.22,5.22,0,0,1,76,13.64a5.16,5.16,0,0,1,1.44,3.92A5.2,5.2,0,0,1,76,21.5a5.18,5.18,0,0,1-3.76,1.37A5.29,5.29,0,0,1,68.4,21.5a5.14,5.14,0,0,1-1.47-3.94A5.11,5.11,0,0,1,68.4,13.64Zm2.49,3.92c0,1.23.42,1.84,1.27,1.84a1.1,1.1,0,0,0,.92-.47,2.29,2.29,0,0,0,.35-1.37,2.24,2.24,0,0,0-.35-1.35,1.1,1.1,0,0,0-.92-.47C71.31,15.74,70.89,16.35,70.89,17.56Z"/></g></g></svg>