<svg xmlns="http://www.w3.org/2000/svg" viewBox="0 0 62.44 45.87"><defs><style>.cls-1{fill:#fff;}</style></defs><g id="Layer_2" data-name="Layer 2"><g id="Layer_1-2" data-name="Layer 1"><path class="cls-1" d="M19.07,29.72v3.13H14.82v12.9H10.91V32.85H6.67V29.72Z"/><path class="cls-1" d="M34.92,29.72v16H31v-6.6H24.94v6.6H21v-16h3.91V36H31V29.72Z"/><path class="cls-1" d="M38.09,33.48A7.37,7.37,0,0,1,41,30.57a8.35,8.35,0,0,1,4.17-1A8,8,0,0,1,50,31a7.25,7.25,0,0,1,2.71,4.11H48.44a3.45,3.45,0,0,0-1.36-1.53,3.82,3.82,0,0,0-2-.52,3.74,3.74,0,0,0-2.92,1.25A4.86,4.86,0,0,0,41,37.71a4.86,4.86,0,0,0,1.12,3.36,3.71,3.71,0,0,0,2.92,1.26,3.83,3.83,0,0,0,2-.53,3.45,3.45,0,0,0,1.36-1.53h4.29A7.16,7.16,0,0,1,50,44.37a8,8,0,0,1-4.89,1.5,8.35,8.35,0,0,1-4.17-1,7.45,7.45,0,0,1-2.87-2.89,9.28,9.28,0,0,1,0-8.46Z"/><path class="cls-1" d="M52.88,1a2.37,2.37,0,0,1,3,0,2,2,0,0,1,.57,1.55,2,2,0,0,1-.57,1.54,2.33,2.33,0,0,1-3,0,2,2,0,0,1-.58-1.54A2,2,0,0,1,52.88,1Zm1,1.55c0,.48.16.71.49.71a.43.43,0,0,0,.37-.18.84.84,0,0,0,.14-.53A.89.89,0,0,0,54.74,2a.45.45,0,0,0-.37-.17C54,1.81,53.88,2,53.88,2.52ZM60.75.57,56.25,9H54L58.52.57ZM58.9,5.47a2.12,2.12,0,0,1,1.5-.54,2.06,2.06,0,0,1,1.48.54A2.06,2.06,0,0,1,62.44,7a2.06,2.06,0,0,1-.56,1.55,2,2,0,0,1-1.48.55,2.09,2.09,0,0,1-1.5-.55A2,2,0,0,1,58.33,7,2,2,0,0,1,58.9,5.47Zm1,1.54c0,.49.17.73.5.73a.42.42,0,0,0,.37-.19A.9.9,0,0,0,60.88,7a.9.9,0,0,0-.13-.53.43.43,0,0,0-.37-.18C60.05,6.3,59.88,6.54,59.88,7Z"/><path class="cls-1" d="M6.08,12.45H4.16v2H1.93v-2H0V10.34H1.93v-2H4.16v2H6.08Z"/><path class="cls-1" d="M9.8,6.38a5.91,5.91,0,0,1,.92-3.21A6.45,6.45,0,0,1,13.54.86,11.26,11.26,0,0,1,18.19,0a11.27,11.27,0,0,1,4.66.86,6.47,6.47,0,0,1,2.81,2.31,5.84,5.84,0,0,1,.93,3.21,5.62,5.62,0,0,1-.77,3,5.63,5.63,0,0,1-2.13,2,6.17,6.17,0,0,1,2.57,2.34,6.56,6.56,0,0,1,.88,3.45,6.93,6.93,0,0,1-1.2,4.09,7.48,7.48,0,0,1-3.24,2.58,11.2,11.2,0,0,1-4.51.88,11.12,11.12,0,0,1-4.5-.88,7.48,7.48,0,0,1-3.24-2.58,6.87,6.87,0,0,1-1.21-4.09,6.65,6.65,0,0,1,.88-3.45,6.23,6.23,0,0,1,2.57-2.34A5.3,5.3,0,0,1,9.8,6.38Zm6.39,8.44a2.61,2.61,0,0,0-.76,2,2.63,2.63,0,0,0,.74,1.92,2.74,2.74,0,0,0,2,.75,2.75,2.75,0,0,0,2-4.64,2.75,2.75,0,0,0-2-.73A2.81,2.81,0,0,0,16.19,14.82Zm3.56-9.21a2.2,2.2,0,0,0-3.1,0A2.49,2.49,0,0,0,16,7.39a2.37,2.37,0,0,0,.61,1.72,2.06,2.06,0,0,0,1.54.62,2.08,2.08,0,0,0,1.55-.62,2.37,2.37,0,0,0,.6-1.72A2.5,2.5,0,0,0,19.75,5.61Z"/><path class="cls-1" d="M32.38,3.22Q34.66,0,39.54,0t7.18,3.22Q49,6.45,49,12t-2.28,8.89c-1.51,2.14-3.91,3.22-7.19,3.22s-5.67-1.08-7.17-3.22S30.1,15.82,30.1,12,30.86,5.37,32.38,3.22Zm9.7,4.35A2.46,2.46,0,0,0,39.54,6,2.47,2.47,0,0,0,37,7.57,12.63,12.63,0,0,0,36.39,12a13.16,13.16,0,0,0,.6,4.54,2.45,2.45,0,0,0,2.55,1.55,2.46,2.46,0,0,0,2.56-1.55A13.16,13.16,0,0,0,42.7,12,12.59,12.59,0,0,0,42.08,7.57Z"/></g></g></svg>