<svg xmlns="http://www.w3.org/2000/svg" width="249.996" height="249.994" viewBox="0 0 249.996 249.994">
  <g id="Group_54" data-name="Group 54" transform="translate(-158 -61.646)">
    <path id="Path_6146" data-name="Path 6146" d="M408,186.643a125,125,0,1,1-125-125,125,125,0,0,1,125,125" transform="translate(0 0)" fill="#050605"/>
    <path id="Path_6147" data-name="Path 6147" d="M255.079,140c-5.047,3.784-7.519,11.35-8.645,6.629-.507-5.4,9.017-11.238,9.543-22.064.82-16.911-17.427-28.14-17.427-28.14s8.3,15.523,1.155,29.82a98.63,98.63,0,0,1-8.546,13.487c.013,10.267-2.757,18.99-8.4,26.5.784,13.617,12.421,16.037,16.812,15.357,10.353-1.606,15.717-11.56,17.384-20.671,2.193-12,9.781-23.443,9.781-23.443s-6.61-1.256-11.655,2.528m-16.932,32.468c-6.608-2.4-6.99-10.6-5.565-16.952,2.951-13.155,14.653-28.006,14.653-34.029,0,0,2.649,7.314-3.266,18.264-4.6,8.518-3.039,16.019,1.261,17.664,4.179,1.22,8.35-5.947,8.35-5.947s-4.3,25.047-15.432,21" transform="translate(75.031 40.295)" fill="#ed4c14"/>
    <path id="Path_6148" data-name="Path 6148" d="M239.347,113.082c-.443.106,1.39-1.388,1.39-6.312a98.659,98.659,0,0,0-.7-10.476s4.609,5.3,4.481,8.4c.378,3.257-1.3,7.469-5.174,8.393" transform="translate(94.173 40.145)" fill="#ed4c14"/>
    <path id="Path_6149" data-name="Path 6149" d="M265.278,129.259c-.8-10.649-6.476-18.061-16.868-22.038a48.294,48.294,0,0,0-17.032-2.916c-7.4-.069-15.577-.056-23.484-.045-2.808,0-5.569.009-8.218.009a.394.394,0,0,0-.358.233.388.388,0,0,0,.073.421,24.263,24.263,0,0,1,3.434,4.827c.889,1.807.576,4.6.309,6.124-.807,4.576-1.589,9.237-2.349,13.746-1.617,9.613-3.288,19.553-5.267,29.261a21.891,21.891,0,0,1-7.823,12.689,1.96,1.96,0,0,0-.4.365.391.391,0,0,0,.3.6c.52.037,11.957.089,22.122.089,3.709,0,7.247-.009,10.025-.026a63.914,63.914,0,0,0,14.936-1.859c9.615-2.379,16.84-6.547,22.085-12.745,6.59-7.786,9.373-17.183,8.505-28.73M215.126,169.08l-1.7,0,10.947-61.23c.851,0,1.7-.017,2.549-.035,3.529-.076,6.867-.147,10.1,1.235,4.106,1.759,6.482,5.2,7.478,10.843,1.293,7.316.561,14.789-.225,21.222a49.077,49.077,0,0,1-3.823,14.256c-4,8.961-11.024,13.571-20.881,13.7-1.459.022-2.921.015-4.443.011" transform="translate(33.881 49.365)" fill="#fff"/>
    <path id="Path_6150" data-name="Path 6150" d="M176,91.247c1.2-1.621,2.666-3.38,7.914.494,4.779,3.532,3.821,5.287,2.005,7.745l-.7.948-10.357-7.648Zm1.045,1.028,8.022,5.926c1.742-2.217-.473-3.7-2.23-5-1.593-1.176-4.216-3.348-5.792-.924" transform="translate(19.536 32.165)" fill="#fff"/>
    <path id="Path_6151" data-name="Path 6151" d="M185.075,80.622l10.318,8.229-1.338,1.092L192.09,88.3,190.1,89.928l1.224,2.249-1.3,1.062-6-11.76ZM189.6,86.2l-3.471-3.216-.028.022,3.357,5.723,1.589-1.3Z" transform="translate(30.16 21.987)" fill="#fff"/>
    <path id="Path_6152" data-name="Path 6152" d="M196.584,78.954l2.049,3.819,1.99,4.3-1.552.719-5.412-11.7,1.487-.689,6.845,7.624.017-.045-2.541-4.512-1.934-4.175,1.552-.717,5.416,11.7-1.444.667-6.9-7.75-.017.045Z" transform="translate(41.316 13.824)" fill="#fff"/>
    <rect id="Rectangle_81" data-name="Rectangle 81" width="1.709" height="12.893" transform="translate(260.873 80.973) rotate(-11.367)" fill="#fff"/>
    <path id="Path_6153" data-name="Path 6153" d="M232.791,71.777l-.343,1.446-2.845-.676-.935,3.944,2.56.607-.343,1.449-2.56-.609-1.358,5.705-1.664-.4,2.981-12.542Z" transform="translate(77.981 10.498)" fill="#fff"/>
    <rect id="Rectangle_82" data-name="Rectangle 82" width="12.885" height="1.709" transform="translate(324.286 101.003) rotate(-63.697)" fill="#fff"/>
    <path id="Path_6154" data-name="Path 6154" d="M251.162,80.18l1.584,1.3c.963.794,2.426,2.087.371,4.583-.773.937-2.223,2.137-3.482,1.431l-2.154,6.359-1.373-1.131,2.215-6.351-.028-.024-4.009,4.874-1.321-1.086Zm.317,5.025c.781-.952,1.315-1.841.291-2.642l-.214-.173-2.707,3.288c.939.881,1.8.531,2.629-.473" transform="translate(98.446 21.475)" fill="#fff"/>
    <path id="Path_6155" data-name="Path 6155" d="M263.7,92.567l-1.189.892-1.733-2.31-3.238,2.426,1.546,2.064-1.187.892-1.548-2.064-3.5,2.623,1.731,2.31-1.187.891-2.759-3.676,10.31-7.726Z" transform="translate(107.334 31.565)" fill="#fff"/>
    <path id="Path_6156" data-name="Path 6156" d="M174.654,151.582l8.667-6.331,1.008,1.379c.721.989,1.554,2.321-.676,3.948-1.759,1.287-3.078,1.194-4.319-.652l-3.84,2.806Zm8.531-4.468-2.875,2.1c.654,1.038,1.395.92,2.362.214.781-.57,1.269-1.28.63-2.152Z" transform="translate(19.296 96.87)" fill="#fff"/>
    <path id="Path_6157" data-name="Path 6157" d="M188.231,151.866l1.252,1.164c.764.706,1.915,1.852.084,3.825-.686.74-1.951,1.666-2.964,1.019l-2.1,5.179-1.086-1.008,2.152-5.17-.019-.019-3.575,3.853-1.045-.969Zm.017,4.192c.7-.753,1.185-1.466.371-2.18l-.166-.155-2.411,2.6c.732.777,1.47.529,2.206-.266" transform="translate(26.566 104.534)" fill="#fff"/>
    <path id="Path_6158" data-name="Path 6158" d="M197.531,159.412l-.656,1.049-2.038-1.276-1.787,2.858,1.822,1.14-.656,1.047-1.822-1.138-1.93,3.085,2.036,1.276-.656,1.049-3.242-2.029,5.688-9.09Z" transform="translate(35.455 110.926)" fill="#fff"/>
    <path id="Path_6159" data-name="Path 6159" d="M202.432,161.776l-1.278,7.788.028.011.194-.4,1.3-2.264,2.517-4.106,1.174.438-2.815,10.4-1.308-.486,1.157-3.838.615-1.9.466-1.332-.026-.009-.764,1.356L200.6,172.55l-.92-.341,1.291-7.419-.026-.011-2.972,6.793-1.267-.475,4.576-9.749Z" transform="translate(44.851 115.521)" fill="#fff"/>
    <rect id="Rectangle_83" data-name="Rectangle 83" width="10.725" height="1.422" transform="translate(264.393 293.142) rotate(-80.569)" fill="#fff"/>
    <path id="Path_6160" data-name="Path 6160" d="M217.1,164.685l.147,7.868c.026,1.382.443,1.658,1.028,1.647.98-.019,1.056-.645,1.051-1.528l-.147-8.026,1.423-.026.14,7.614c.026,1.407.076,3.257-2.4,3.3-2.262.041-2.489-1.492-2.528-3.426l-.134-7.4Z" transform="translate(66.827 119.312)" fill="#fff"/>
    <path id="Path_6161" data-name="Path 6161" d="M226.142,164.149l3.24,7.2.028-.007-.06-.44-.168-2.608-.168-4.812,1.22-.285,3.4,10.23-1.358.317-1.157-3.838-.535-1.923-.348-1.366-.028.007.112,1.552.25,5.964-.958.225-3.024-6.9-.028.009,1.278,7.3-1.317.307-1.576-10.655Z" transform="translate(77.57 117.662)" fill="#fff"/>
    <path id="Path_6162" data-name="Path 6162" d="M241.921,156.9l5.317,7.866,1.979-1.341.693,1.028-3.16,2.135-6.01-8.891Z" transform="translate(95.867 110.369)" fill="#fff"/>
    <rect id="Rectangle_84" data-name="Rectangle 84" width="1.425" height="10.731" transform="translate(350.708 256.859) rotate(-44.079)" fill="#fff"/>
    <path id="Path_6163" data-name="Path 6163" d="M254.846,144.945l1,.725-.943,1.3,7.691,5.559-.833,1.153-7.689-5.556-.982,1.36-1-.725Z" transform="translate(109.017 96.515)" fill="#fff"/>
    <path id="Path_6164" data-name="Path 6164" d="M263.582,256.055a88.827,88.827,0,1,1,88.827-88.827,88.926,88.926,0,0,1-88.827,88.827m0-176.876a88.049,88.049,0,1,0,88.052,88.049,88.15,88.15,0,0,0-88.052-88.049" transform="translate(19.417 19.414)" fill="#fff"/>
    <path id="Path_6165" data-name="Path 6165" d="M278.73,299.421A117.046,117.046,0,1,1,395.776,182.375,117.179,117.179,0,0,1,278.73,299.421m0-233.314A116.269,116.269,0,1,0,395,182.375,116.4,116.4,0,0,0,278.73,66.107" transform="translate(4.27 4.268)" fill="#fff"/>
    <path id="Path_6166" data-name="Path 6166" d="M233.233,158.928c-6.586-2.394-6.97-10.567-5.548-16.9,2.942-13.112,14.605-27.918,14.605-33.921,0,0,2.64,7.29-3.255,18.208-4.583,8.49-3.029,15.968,1.258,17.606,4.164,1.215,8.322-5.926,8.322-5.926s-4.285,24.965-15.383,20.93" transform="translate(79.96 53.835)" fill="#fff"/>
  </g>
</svg>
