<svg id="Layer_1" data-name="Layer 1" xmlns="http://www.w3.org/2000/svg" viewBox="0 0 15.55 11.03"><defs><style>.cls-1{fill:#f15a29;}.cls-2{fill:#231f20;}.cls-3{fill:#fff;}</style></defs><path class="cls-1" d="M14.27,8.14c-.65.49-1,1.46-1.11.85s1.16-1.44,1.23-2.84C14.5,4,12.14,2.52,12.14,2.52a4.61,4.61,0,0,1,.15,3.85,13.27,13.27,0,0,1-1.1,1.74,5.47,5.47,0,0,1-1.08,3.41,2,2,0,0,0,2.16,2,3,3,0,0,0,2.25-2.66,9.43,9.43,0,0,1,1.26-3A2.12,2.12,0,0,0,14.27,8.14Zm-2.18,4.19c-.85-.31-.9-1.37-.72-2.19.38-1.7,1.89-3.61,1.89-4.39a3.1,3.1,0,0,1-.42,2.36c-.59,1.1-.39,2.06.16,2.27s1.08-.76,1.08-.76S13.53,12.85,12.09,12.33Z" transform="translate(-0.22 -2.49)"/><path class="cls-1" d="M14.71,4.65a1.74,1.74,0,0,0,.18-.81,12.55,12.55,0,0,0-.09-1.35s.6.68.58,1.08a1,1,0,0,1-.67,1.08" transform="translate(-0.22 -2.49)"/><path class="cls-2" d="M10.28,7.92A3.12,3.12,0,0,0,8.11,5.08a6.18,6.18,0,0,0-2.2-.37H1.83a.05.05,0,0,0-.05,0,.07.07,0,0,0,0,.06,3,3,0,0,1,.44.62,1.35,1.35,0,0,1,0,.79L2,8c-.21,1.24-.42,2.52-.68,3.77a2.82,2.82,0,0,1-1,1.64l-.05,0a0,0,0,0,0,0,.05l0,0H4.41a7.85,7.85,0,0,0,1.93-.24,5.24,5.24,0,0,0,2.85-1.64A4.87,4.87,0,0,0,10.28,7.92ZM3.82,13.06H3.6L5,5.16h.33a3,3,0,0,1,1.3.16,1.65,1.65,0,0,1,1,1.4,9.22,9.22,0,0,1,0,2.73,6.55,6.55,0,0,1-.5,1.84,2.78,2.78,0,0,1-2.69,1.77Z" transform="translate(-0.22 -2.49)"/><path class="cls-3" d="M12.09,12.33c-.85-.31-.9-1.37-.71-2.18.38-1.69,1.88-3.6,1.88-4.38a3.08,3.08,0,0,1-.42,2.35c-.59,1.1-.39,2.06.16,2.27s1.08-.76,1.08-.76-.56,3.22-2,2.7" transform="translate(-0.22 -2.49)"/></svg>