<svg xmlns="http://www.w3.org/2000/svg" viewBox="0 0 77.43 28"><defs><style>.cls-1{fill:#f15a29;}.cls-2{fill:#fff;}</style></defs><g id="Layer_2" data-name="Layer 2"><g id="Layer_1-2" data-name="Layer 1"><path class="cls-1" d="M5.54,28c-1.58.25-6-.72-5.5-6.39.54-6,3.19-7.08,5.54-11.78S5.2,0,5.2,0s6,3.69,5.72,9.24c-.17,3.56-3.3,5.47-3.13,7.25C8.16,18,9,15.55,10.63,14.31a5.38,5.38,0,0,1,3.83-.83,24.08,24.08,0,0,0-3.21,7.7c-.55,3-2.31,6.26-5.71,6.78"/><path class="cls-2" d="M5.07,25c-2.17-.79-2.3-3.48-1.83-5.57,1-4.32,4.81-9.19,4.81-11.17,0,0,.87,2.4-1.07,6C5.47,17,6,19.49,7.4,20s2.74-2,2.74-2S8.73,26.3,5.07,25"/><path class="cls-1" d="M11.75,11A4.85,4.85,0,0,0,12.21,9,32.16,32.16,0,0,0,12,5.53s1.51,1.74,1.47,2.75A2.5,2.5,0,0,1,11.75,11"/><path class="cls-1" d="M37.2,28c-1.58.25-6-.72-5.5-6.39.54-6,3.2-7.08,5.54-11.78S36.86,0,36.86,0s6,3.69,5.73,9.24c-.18,3.56-3.3,5.47-3.14,7.25.37,1.55,1.18-.94,2.84-2.18a5.38,5.38,0,0,1,3.83-.83,24.08,24.08,0,0,0-3.21,7.7c-.55,3-2.31,6.26-5.71,6.78"/><path class="cls-2" d="M36.73,25c-2.17-.79-2.29-3.48-1.83-5.57,1-4.32,4.82-9.19,4.82-11.17,0,0,.86,2.4-1.08,6-1.51,2.79-1,5.26.42,5.8s2.74-2,2.74-2S40.39,26.3,36.73,25"/><path class="cls-1" d="M43.41,11A4.65,4.65,0,0,0,43.87,9a32.16,32.16,0,0,0-.23-3.44s1.51,1.74,1.47,2.75A2.5,2.5,0,0,1,43.41,11"/><path class="cls-1" d="M68.51,28c-1.58.25-6-.72-5.5-6.39.54-6,3.2-7.08,5.55-11.78S68.18,0,68.18,0s6,3.69,5.72,9.24c-.17,3.56-3.3,5.47-3.14,7.25.38,1.55,1.19-.94,2.84-2.18a5.38,5.38,0,0,1,3.83-.83,24.08,24.08,0,0,0-3.21,7.7c-.55,3-2.31,6.26-5.71,6.78"/><path class="cls-2" d="M68,25c-2.17-.79-2.29-3.48-1.82-5.57,1-4.32,4.81-9.19,4.81-11.17,0,0,.87,2.4-1.07,6-1.51,2.79-1,5.26.41,5.8s2.74-2,2.74-2S71.7,26.3,68,25"/><path class="cls-1" d="M74.72,11A4.65,4.65,0,0,0,75.18,9,32.16,32.16,0,0,0,75,5.53s1.51,1.74,1.47,2.75A2.49,2.49,0,0,1,74.72,11"/></g></g></svg>