<?xml version="1.0" encoding="utf-8"?>
<!-- Generator: Adobe Illustrator 25.0.1, SVG Export Plug-In . SVG Version: 6.00 Build 0)  -->
<svg version="1.1" id="Layer_1" xmlns="http://www.w3.org/2000/svg" xmlns:xlink="http://www.w3.org/1999/xlink" x="0px" y="0px"
	 viewBox="0 0 14.5 28" style="enable-background:new 0 0 14.5 28;" xml:space="preserve">
<style type="text/css">
	.st0{fill:#F15A29;}
	.st1{fill:#FFFFFF;}
</style>
<path class="st0" d="M5.5,28c-1.6,0.2-6-0.7-5.5-6.4c0.5-6,3.2-7.1,5.5-11.8S5.2,0,5.2,0s6,3.7,5.7,9.2c-0.2,3.6-3.3,5.5-3.1,7.2
	c0.4,1.5,1.2-0.9,2.8-2.2c1.1-0.7,2.5-1,3.8-0.8c-1.5,2.4-2.6,5-3.2,7.7C10.7,24.2,8.9,27.4,5.5,28"/>
<path class="st1" d="M5.1,25c-2.2-0.8-2.3-3.5-1.8-5.6c1-4.3,4.8-9.2,4.8-11.2c0,0,0.9,2.4-1.1,6C5.5,17,6,19.5,7.4,20s2.7-2,2.7-2
	S8.7,26.3,5.1,25"/>
<path class="st0" d="M11.8,11c0.3-0.6,0.5-1.3,0.5-2c0-1.2-0.1-2.3-0.2-3.5c0,0,1.5,1.7,1.5,2.8C13.6,9.5,12.9,10.6,11.8,11"/>
</svg>
