<svg xmlns="http://www.w3.org/2000/svg" width="89.626" height="51.221" viewBox="0 0 89.626 51.221">
  <g id="Group_2" data-name="Group 2" transform="translate(-729 -567)">
    <g id="Group_1" data-name="Group 1" transform="translate(729 567)">
      <rect id="Rectangle_1" data-name="Rectangle 1" width="89.626" height="8.491" transform="translate(0 42.73)" fill="#f40"/>
      <path id="Path_1" data-name="Path 1" d="M18.781,34.668H17.144V35.8h1.579v.668H17.144V38.7h-.708V34h2.345Z" transform="translate(-0.954 10.624)" fill="#fff"/>
      <rect id="Rectangle_2" data-name="Rectangle 2" width="0.708" height="4.698" transform="translate(34.228 44.626)" fill="#fff"/>
      <path id="Path_2" data-name="Path 2" d="M36.7,36.16h.226q1.007,0,1.006-.771,0-.719-.978-.719H36.7Zm.882.538,1.456,2h-.869l-1.341-1.923H36.7V38.7h-.708V34h.83a2.077,2.077,0,0,1,1.345.351,1.288,1.288,0,0,1,.457,1.028,1.335,1.335,0,0,1-.287.858,1.275,1.275,0,0,1-.755.459" transform="translate(15.656 10.624)" fill="#fff"/>
      <path id="Path_3" data-name="Path 3" d="M49.029,34.668H47.144V35.8h1.829v.668H47.144v1.57h1.885V38.7H46.437V34h2.591Z" transform="translate(24.532 10.624)" fill="#fff"/>
      <path id="Path_4" data-name="Path 4" d="M42.612,26.53c-.353-4.692-2.854-7.96-7.433-9.712a21.315,21.315,0,0,0-7.505-1.285c-3.261-.03-6.863-.024-10.348-.018-1.239,0-2.454,0-3.623,0a.169.169,0,0,0-.124.287,10.707,10.707,0,0,1,1.513,2.129,4.913,4.913,0,0,1,.137,2.7c-.355,2.018-.7,4.071-1.036,6.057-.712,4.237-1.448,8.617-2.321,12.895a9.636,9.636,0,0,1-3.447,5.591.775.775,0,0,0-.172.161.171.171,0,0,0-.009.168.177.177,0,0,0,.141.094c.231.017,5.271.039,9.749.039,1.635,0,3.194,0,4.418-.011a28.135,28.135,0,0,0,6.58-.819,17.794,17.794,0,0,0,9.732-5.617c2.9-3.429,4.13-7.57,3.749-12.658m-22.1,17.546-.749,0,4.823-26.98c.374,0,.749-.007,1.123-.015a10.353,10.353,0,0,1,4.45.544c1.809.775,2.856,2.293,3.3,4.777a31.905,31.905,0,0,1-.1,9.351,21.638,21.638,0,0,1-1.685,6.281,9.525,9.525,0,0,1-9.2,6.04c-.644.007-1.287.006-1.957,0" transform="translate(-7.929 -5.085)" fill="#fff"/>
      <path id="Path_5" data-name="Path 5" d="M54.856,30.352c-1.156.179-4.394-.531-4.026-4.679.394-4.43,2.34-5.191,4.06-8.63s-.279-7.17-.279-7.17S59,12.573,58.8,16.638c-.126,2.6-2.417,4.01-2.3,5.308.272,1.134.866-.684,2.081-1.594a3.925,3.925,0,0,1,2.8-.608,17.594,17.594,0,0,0-2.353,5.637c-.4,2.192-1.69,4.587-4.18,4.971" transform="translate(28.238 -9.873)" fill="#f40"/>
      <path id="Path_6" data-name="Path 6" d="M53.5,25.391c-1.589-.577-1.681-2.549-1.339-4.076.71-3.164,3.525-6.736,3.525-8.184,0,0,.636,1.759-.786,4.393-1.106,2.049-.731,3.852.3,4.248,1,.292,2.007-1.43,2.007-1.43s-1.034,6.022-3.71,5.049" transform="translate(29.254 -7.105)" fill="#fff"/>
      <path id="Path_7" data-name="Path 7" d="M55.461,16.1A3.489,3.489,0,0,0,55.8,14.58a23.628,23.628,0,0,0-.168-2.519s1.108,1.274,1.078,2.018a1.831,1.831,0,0,1-1.245,2.02" transform="translate(32.183 -8.014)" fill="#f40"/>
      <path id="Path_8" data-name="Path 8" d="M80.372,35.4a.171.171,0,0,0-.185.033l-.159.15a10.7,10.7,0,0,1-1.012.9,8.759,8.759,0,0,1-1.524.8.538.538,0,0,1-.455.011.6.6,0,0,1-.166-.475,6.355,6.355,0,0,1,.122-1.261q.827-4.458,1.663-8.916l.856-4.581c.052-.268.081-.5-.059-.645s-.374-.115-.621-.074c-2.935.5-9.39,1.618-9.314,1.824s1.465,1.058,1.931,1.75a1.024,1.024,0,0,1,.29.954l-.08.425c-.44,2.351-.893,4.781-1.3,7.18l-.08.461a29.879,29.879,0,0,0-.383,3.338c-.12.068-1.818,1.315-2.19.584a1.711,1.711,0,0,1-.129-1.178c.015-.072.028-.141.041-.209.261-1.531.536-3.061.812-4.59q.25-1.379.5-2.759l.046-.266a12.356,12.356,0,0,0,.266-4.041,3.206,3.206,0,0,0-3.379-3.055,7.254,7.254,0,0,0-4.516,1.389,15.075,15.075,0,0,0-4.568,5.156l.253-1.141c.348-1.559.7-3.118,1.054-4.674a.63.63,0,0,0-.068-.584.605.605,0,0,0-.568-.087c-2.676.54-8.4,1.541-8.491,1.759-.107.268,1.269,1.141,1.568,1.881a1.6,1.6,0,0,1-.061.779q-.649,3.737-1.324,7.472L48.7,36.15c-.043.037-.083.067-.129.107a4.377,4.377,0,0,1-1.96,1.174.575.575,0,0,1-.446-.026A.546.546,0,0,1,46.018,37a4.052,4.052,0,0,1,.055-.947q.682-3.8,1.385-7.6l.244-1.337c.257-1.395.514-2.789.779-4.228l.229-1.247a.171.171,0,0,0-.2-.2l-.2.033c-.12.018-.211.033-.3.055l-1.261.3c-1.452.346-2.952.7-4.424,1.078a.617.617,0,0,1-.71-.181,4.317,4.317,0,0,0-3.386-1.313A11.282,11.282,0,0,0,29.29,26.29a12.239,12.239,0,0,0-2.058,10.847,4.6,4.6,0,0,0,2.915,3.272,5.058,5.058,0,0,0,1.731.313h.011l.026,0c.092,0,.187,0,.287.007a6.726,6.726,0,0,0,2.9-.8c1.576-.984,3.483-3.6,4.64-5.426-.009.052-.019.105-.026.155a23.3,23.3,0,0,0-.375,2.767,3.207,3.207,0,0,0,.742,2.608,3.333,3.333,0,0,0,2.726.657,8.143,8.143,0,0,0,5.622-3.026c-.08.455-.161.912-.24,1.374l-.263,1.487a.158.158,0,0,0,.033.133.163.163,0,0,0,.12.067l.141.015a1.27,1.27,0,0,0,.209.013l1.973-.089c1.343-.061,2.685-.122,4.03-.176a.583.583,0,0,0,.621-.573c.24-1.511.56-3.5.914-5.51.054-.311.1-.625.148-.94a13.241,13.241,0,0,1,.571-2.6,13.751,13.751,0,0,1,3.854-5.537,3.451,3.451,0,0,1,.871-.559.7.7,0,0,1,.636-.011.67.67,0,0,1,.29.544,5.845,5.845,0,0,1-.024,1.517c-.227,1.321-.468,2.637-.708,3.956-.237,1.3-.473,2.6-.7,3.908l-.067.383a14.165,14.165,0,0,0-.3,2.75,2.977,2.977,0,0,0,3.248,3.229c.105,0,.211,0,.32-.009a10.421,10.421,0,0,0,5.92-2.545,2.762,2.762,0,0,0,.718,1.247,3.34,3.34,0,0,0,2.391.834c.07,0,.142,0,.215,0,.107,0,.213-.011.32-.02a9.881,9.881,0,0,0,6.771-4.291.179.179,0,0,0,.031-.1v-.6a.174.174,0,0,0-.1-.157M40.879,26.286c-.026.117-.054.233-.078.348-.092.436-.181.877-.268,1.315-.255,1.274-.52,2.595-.9,3.849a10.95,10.95,0,0,1-2.506,4.33,6.989,6.989,0,0,1-1.195,1.021,1.289,1.289,0,0,1-1.147.226,1.273,1.273,0,0,1-.74-.882c-.629-2.047.009-5.9,1.792-10.845a6.71,6.71,0,0,1,1.391-2.023l.118-.137a2.3,2.3,0,0,1,1.648-.9,1.677,1.677,0,0,1,.538.091,2.4,2.4,0,0,1,1.522,2.162,4.384,4.384,0,0,1-.174,1.444" transform="translate(7.811 -0.168)" fill="#fff"/>
    </g>
  </g>
</svg>
