<svg xmlns="http://www.w3.org/2000/svg" viewBox="0 0 59.97 56.4"><defs><style>.cls-1{fill:#fff;}</style></defs><g id="Layer_2" data-name="Layer 2"><g id="Layer_1-2" data-name="Layer 1"><path class="cls-1" d="M6,56.33H4.23L1.81,52.69v3.64H0V49.81H1.81L4.23,53.5V49.81H6Z"/><path class="cls-1" d="M8.1,56.08a2.48,2.48,0,0,1-1-.93,2.78,2.78,0,0,1-.35-1.41,2.69,2.69,0,0,1,.36-1.41,2.48,2.48,0,0,1,1-.93,3.18,3.18,0,0,1,2.78,0,2.5,2.5,0,0,1,1,.93,2.78,2.78,0,0,1,.35,1.41,2.83,2.83,0,0,1-.35,1.41,2.5,2.5,0,0,1-1,.93,3,3,0,0,1-1.4.32A3,3,0,0,1,8.1,56.08Zm2-1.54a1.13,1.13,0,0,0,.25-.8,1.16,1.16,0,0,0-.25-.81.84.84,0,0,0-.63-.28.82.82,0,0,0-.62.28,1.21,1.21,0,0,0-.25.81,1.22,1.22,0,0,0,.24.81.8.8,0,0,0,.62.28A.82.82,0,0,0,10.13,54.54Z"/><path class="cls-1" d="M18.86,55.27H16.54l-.35,1.06h-1.9l2.37-6.52h2.09l2.37,6.52H19.21Zm-.46-1.39-.7-2.11L17,53.88Z"/><path class="cls-1" d="M21.71,52.33a2.28,2.28,0,0,1,.8-.93,2.12,2.12,0,0,1,1.13-.32,1.86,1.86,0,0,1,.89.21,1.62,1.62,0,0,1,.62.57V49.49H27v6.84H25.15v-.72a1.59,1.59,0,0,1-.6.58,1.92,1.92,0,0,1-.92.21,2.06,2.06,0,0,1-1.12-.32,2.28,2.28,0,0,1-.8-.93,3.32,3.32,0,0,1-.29-1.41A3.25,3.25,0,0,1,21.71,52.33Zm3.17.62a.88.88,0,0,0-.67-.29.91.91,0,0,0-.67.28,1.31,1.31,0,0,0,0,1.59.92.92,0,0,0,1.34,0,1.08,1.08,0,0,0,.28-.79A1.06,1.06,0,0,0,24.88,53Z"/><path class="cls-1" d="M28,52.33a2.28,2.28,0,0,1,.8-.93,2.12,2.12,0,0,1,1.13-.32,1.93,1.93,0,0,1,.9.21,1.6,1.6,0,0,1,.61.57V49.49h1.82v6.84H31.44v-.72a1.59,1.59,0,0,1-.6.58,1.92,1.92,0,0,1-.92.21,2.06,2.06,0,0,1-1.12-.32,2.28,2.28,0,0,1-.8-.93,3.32,3.32,0,0,1-.29-1.41A3.25,3.25,0,0,1,28,52.33Zm3.18.62a.94.94,0,0,0-1.35,0,1.31,1.31,0,0,0,0,1.59.89.89,0,0,0,.68.29.92.92,0,0,0,.67-.29,1.11,1.11,0,0,0,.27-.79A1.1,1.1,0,0,0,31.18,53Z"/><path class="cls-1" d="M34.44,50.4a.88.88,0,0,1-.29-.66.91.91,0,0,1,.29-.68,1.1,1.1,0,0,1,.78-.27,1.09,1.09,0,0,1,.76.27.91.91,0,0,1,.29.68.88.88,0,0,1-.29.66,1.08,1.08,0,0,1-.76.26A1.1,1.1,0,0,1,34.44,50.4Zm1.67.74v5.19H34.3V51.14Z"/><path class="cls-1" d="M40.21,54.79v1.54h-.79a1.74,1.74,0,0,1-2-2V52.65H36.8V51.14h.64V49.89h1.82v1.25h.94v1.51h-.94v1.74a.4.4,0,0,0,.1.31.45.45,0,0,0,.32.09Z"/><path class="cls-1" d="M41.19,50.4a.84.84,0,0,1-.29-.66.87.87,0,0,1,.29-.68,1.22,1.22,0,0,1,1.53,0,.87.87,0,0,1,.29.68.84.84,0,0,1-.29.66,1.26,1.26,0,0,1-1.53,0Zm1.67.74v5.19H41V51.14Z"/><path class="cls-1" d="M46.38,54.62l1-3.48h1.94L47.5,56.33H45.25l-1.79-5.19h1.93Z"/><path class="cls-1" d="M54.83,54.11H51.4a1,1,0,0,0,.23.63.73.73,0,0,0,.54.21.66.66,0,0,0,.64-.41h1.94a2.27,2.27,0,0,1-.47,1,2.4,2.4,0,0,1-.87.66,2.81,2.81,0,0,1-1.17.24,2.85,2.85,0,0,1-1.36-.32,2.4,2.4,0,0,1-.94-.93,2.88,2.88,0,0,1-.34-1.41,2.79,2.79,0,0,1,.34-1.42,2.35,2.35,0,0,1,.93-.92,3.12,3.12,0,0,1,2.73,0,2.26,2.26,0,0,1,.93.91,2.76,2.76,0,0,1,.33,1.38A3.22,3.22,0,0,1,54.83,54.11ZM53,53.23a.68.68,0,0,0-.22-.53.88.88,0,0,0-.56-.19.85.85,0,0,0-.55.18.87.87,0,0,0-.27.54Z"/><path class="cls-1" d="M56.56,56.16a2.06,2.06,0,0,1-.87-.64,1.63,1.63,0,0,1-.36-.93h1.76a.53.53,0,0,0,.23.38.76.76,0,0,0,.48.14.58.58,0,0,0,.35-.09.27.27,0,0,0,.13-.24.31.31,0,0,0-.21-.29,4.3,4.3,0,0,0-.7-.2,6.09,6.09,0,0,1-.93-.25,1.5,1.5,0,0,1-.64-.45,1.28,1.28,0,0,1-.28-.85,1.53,1.53,0,0,1,.25-.84,1.79,1.79,0,0,1,.74-.6,2.75,2.75,0,0,1,1.17-.22,2.39,2.39,0,0,1,1.6.5A2,2,0,0,1,60,52.89H58.32a.63.63,0,0,0-.22-.38.72.72,0,0,0-.46-.13.52.52,0,0,0-.33.08.26.26,0,0,0-.12.23.3.3,0,0,0,.21.28,3.33,3.33,0,0,0,.69.2,6.06,6.06,0,0,1,.94.27,1.6,1.6,0,0,1,.65.48,1.29,1.29,0,0,1,.29.89,1.32,1.32,0,0,1-.27.81,1.71,1.71,0,0,1-.75.57,2.83,2.83,0,0,1-1.14.21A3.06,3.06,0,0,1,56.56,56.16Z"/><path class="cls-1" d="M29.64,43.11A14.48,14.48,0,0,1,15.17,28.64a13.85,13.85,0,0,1,2-7.36L26.51,6.43c.46-.73.74-1.18.76-1.2l2.11-3.36,2.13,3.34,9,14.12c1.6,2.36,3.59,5.29,3.59,9.31A14.49,14.49,0,0,1,29.64,43.11ZM29.39,4.25l-1,1.66s-.3.47-.76,1.2L18.26,22a12.55,12.55,0,0,0-1.82,6.68,13.2,13.2,0,0,0,26.4,0c0-3.63-1.87-6.38-3.37-8.6h0l-9-14.13Z"/><path class="cls-1" d="M29.64,44.11A15.49,15.49,0,0,1,14.17,28.64a14.84,14.84,0,0,1,2.17-7.89L25.67,5.9c.46-.73.74-1.19.76-1.21L29.37,0l3,4.68c2.23,3.5,8.67,13.6,9,14.11,1.66,2.45,3.75,5.52,3.75,9.85A15.49,15.49,0,0,1,29.64,44.11Zm-.25-38-.2.32-.75,1.2L19.11,22.49a11.56,11.56,0,0,0-1.67,6.15,12.2,12.2,0,0,0,24.4,0c0-3.32-1.77-5.93-3.2-8l-9-14.17Z"/><path class="cls-1" d="M18.47,25.56c.28.44,1.94,2.29,4.12,4.86,2.59,3.07,5.52,6.52,5.86,6.91.63.72,1.09.23,2-1.66a93.53,93.53,0,0,1,7.76-13.53A88.12,88.12,0,0,1,49,10.09C50.39,9,51,8.3,50.12,7.94s-7.92,4.6-12,9c-4.4,4.77-9.16,12.54-10.34,12.73-1,.14-5.53-3.29-6.82-4.1-1.51-.93-3.18-1.22-2.47-.05"/><path class="cls-1" d="M29,38.65A1.66,1.66,0,0,1,27.7,38c-.34-.39-3.28-3.85-5.88-6.93-.83-1-1.59-1.87-2.23-2.6a28.55,28.55,0,0,1-2-2.38h0a1.44,1.44,0,0,1,.05-1.89c1-1,3.16.18,3.79.57.34.21.89.59,1.54,1a35.86,35.86,0,0,0,4.58,2.87,43.46,43.46,0,0,0,3.57-4.51,94.8,94.8,0,0,1,6.22-7.86C40.19,13.24,48.5,6.22,50.49,7a1.51,1.51,0,0,1,1,1.18c.15,1-.75,1.8-1.86,2.69a85.89,85.89,0,0,0-10.6,11.85,85.17,85.17,0,0,0-7.23,12.49l-.45.9c-.7,1.4-1.26,2.39-2.23,2.52Zm-8.33-12,.46.54c.64.74,1.41,1.63,2.25,2.62,2.26,2.68,4.78,5.65,5.61,6.62.14-.23.34-.59.63-1.16l.44-.89a89.34,89.34,0,0,1,7.41-12.79,96.88,96.88,0,0,1,9.29-10.68,52.38,52.38,0,0,0-7.89,6.79,92.25,92.25,0,0,0-6.08,7.68c-3,4.15-3.93,5.21-4.85,5.36s-2.4-.73-6.05-3.25ZM19.28,25l-.81.6.83-.51A.2.2,0,0,0,19.28,25Z"/></g></g></svg>