<svg xmlns="http://www.w3.org/2000/svg" viewBox="0 0 71.2 51.12"><defs><style>.cls-1{fill:#fff;}</style></defs><g id="Layer_2" data-name="Layer 2"><g id="Layer_1-2" data-name="Layer 1"><path class="cls-1" d="M40.82,27.91a3.57,3.57,0,0,1-1.48,1.27,5.68,5.68,0,0,1-2.34.54v1.33H36V29.68a5.34,5.34,0,0,1-3-1.11A3.33,3.33,0,0,1,31.75,26h3.47A1.2,1.2,0,0,0,36,27.11V25a20.39,20.39,0,0,1-2.19-.71,3.68,3.68,0,0,1-1.42-1.06,3,3,0,0,1-.63-2,3.08,3.08,0,0,1,.56-1.83,3.64,3.64,0,0,1,1.52-1.19A6,6,0,0,1,36,17.71V16.36h1v1.35a4.91,4.91,0,0,1,2.94,1.06,3.51,3.51,0,0,1,1.2,2.56H37.63a1.08,1.08,0,0,0-.63-1v2.11l.42.13a16.6,16.6,0,0,1,2,.69,3.75,3.75,0,0,1,1.35,1.07,2.86,2.86,0,0,1,.57,1.85A3.11,3.11,0,0,1,40.82,27.91ZM36,22.05V20.22a.8.8,0,0,0-.76.85C35.19,21.47,35.44,21.79,36,22.05Zm1.68,4.81a.81.81,0,0,0,.24-.6c0-.39-.29-.71-.87-1v1.88A1.19,1.19,0,0,0,37.63,26.86Z"/><path class="cls-1" d="M8.47,7.48H2.91a1.57,1.57,0,0,0,.38,1,1.19,1.19,0,0,0,.86.34,1.08,1.08,0,0,0,1-.66H8.34a3.58,3.58,0,0,1-.76,1.55,3.92,3.92,0,0,1-1.42,1.07,4.5,4.5,0,0,1-1.89.39,4.57,4.57,0,0,1-2.21-.52A3.76,3.76,0,0,1,.55,9.18,4.58,4.58,0,0,1,0,6.88,4.58,4.58,0,0,1,.54,4.6,3.7,3.7,0,0,1,2.05,3.1a4.55,4.55,0,0,1,2.22-.52,4.65,4.65,0,0,1,2.21.51A3.7,3.7,0,0,1,8,4.55a4.48,4.48,0,0,1,.54,2.24A5.34,5.34,0,0,1,8.47,7.48Zm-3-1.42a1.07,1.07,0,0,0-.36-.85,1.36,1.36,0,0,0-.9-.31,1.31,1.31,0,0,0-.89.3,1.4,1.4,0,0,0-.45.86Z"/><path class="cls-1" d="M15,11.1,13.45,9l-1.2,2.12H9l2.8-4.37L8.91,2.68h3.3L13.72,4.8l1.22-2.12h3.22L15.29,7l3,4.13Z"/><path class="cls-1" d="M19.19,4.6A3.76,3.76,0,0,1,20.7,3.1a4.57,4.57,0,0,1,2.21-.52,4.15,4.15,0,0,1,2.7.88A4,4,0,0,1,27,5.91H23.9a1,1,0,0,0-1-.83,1,1,0,0,0-.87.46,2.28,2.28,0,0,0-.33,1.34A2.32,2.32,0,0,0,22,8.23a1,1,0,0,0,.87.47,1,1,0,0,0,1-.83H27a4.07,4.07,0,0,1-1.41,2.45,4.15,4.15,0,0,1-2.7.88,4.57,4.57,0,0,1-2.21-.52,3.76,3.76,0,0,1-1.51-1.5,4.68,4.68,0,0,1-.54-2.3A4.63,4.63,0,0,1,19.19,4.6Z"/><path class="cls-1" d="M36.23,7.48H30.67a1.52,1.52,0,0,0,.38,1,1.18,1.18,0,0,0,.86.34A1.08,1.08,0,0,0,33,8.19h3.13a3.68,3.68,0,0,1-.75,1.55,4,4,0,0,1-1.42,1.07,4.87,4.87,0,0,1-4.1-.13,3.78,3.78,0,0,1-1.52-1.5,4.68,4.68,0,0,1-.54-2.3A4.58,4.58,0,0,1,28.3,4.6a3.73,3.73,0,0,1,1.5-1.5,5,5,0,0,1,4.43,0,3.7,3.7,0,0,1,1.5,1.46,4.48,4.48,0,0,1,.54,2.24A5.32,5.32,0,0,1,36.23,7.48Zm-3-1.42a1.06,1.06,0,0,0-.35-.85A1.38,1.38,0,0,0,32,4.9a1.31,1.31,0,0,0-.89.3,1.4,1.4,0,0,0-.45.86Z"/><path class="cls-1" d="M40.41,0V11.1H37.47V0Z"/><path class="cls-1" d="M45,0V11.1H42.09V0Z"/><path class="cls-1" d="M54.7,7.48H49.14a1.57,1.57,0,0,0,.38,1,1.21,1.21,0,0,0,.86.34,1.07,1.07,0,0,0,1-.66h3.14a3.58,3.58,0,0,1-.76,1.55,3.92,3.92,0,0,1-1.42,1.07,4.5,4.5,0,0,1-1.89.39,4.57,4.57,0,0,1-2.21-.52,3.76,3.76,0,0,1-1.51-1.5,4.58,4.58,0,0,1-.55-2.3,4.58,4.58,0,0,1,.54-2.28,3.7,3.7,0,0,1,1.51-1.5,4.58,4.58,0,0,1,2.22-.52,4.65,4.65,0,0,1,2.21.51,3.7,3.7,0,0,1,1.5,1.46,4.48,4.48,0,0,1,.54,2.24A5.34,5.34,0,0,1,54.7,7.48Zm-3-1.42a1.07,1.07,0,0,0-.36-.85,1.36,1.36,0,0,0-.9-.31,1.27,1.27,0,0,0-.88.3,1.35,1.35,0,0,0-.45.86Z"/><path class="cls-1" d="M63.76,3.58a3.78,3.78,0,0,1,.86,2.61V11.1H61.68V6.58a1.62,1.62,0,0,0-.38-1.13,1.3,1.3,0,0,0-1-.41,1.36,1.36,0,0,0-1,.41,1.62,1.62,0,0,0-.37,1.13V11.1H56V2.68h2.94v1.2a2.94,2.94,0,0,1,1-.92,3.2,3.2,0,0,1,1.51-.35A2.91,2.91,0,0,1,63.76,3.58Z"/><path class="cls-1" d="M71.2,8.59V11.1H69.92q-3.23,0-3.22-3.2V5.13h-1V2.68h1v-2h3v2h1.53V5.13H69.65V8a.67.67,0,0,0,.16.49.76.76,0,0,0,.53.15Z"/><path class="cls-1" d="M20.5,38.92A3,3,0,0,1,22,38.58a3.33,3.33,0,0,1,1.83.52,3.57,3.57,0,0,1,1.28,1.5,5.1,5.1,0,0,1,.48,2.28,5.18,5.18,0,0,1-.48,2.29,3.6,3.6,0,0,1-1.28,1.51A3.33,3.33,0,0,1,22,47.2a3,3,0,0,1-1.47-.34,2.61,2.61,0,0,1-1-.93v5.19H16.58V38.68h2.94v1.17A2.51,2.51,0,0,1,20.5,38.92Zm1.64,2.68a1.47,1.47,0,0,0-1.09-.46,1.42,1.42,0,0,0-1.08.47,1.74,1.74,0,0,0-.45,1.27A1.78,1.78,0,0,0,20,44.17a1.42,1.42,0,0,0,1.08.47,1.44,1.44,0,0,0,1.09-.47,1.81,1.81,0,0,0,.44-1.29A1.75,1.75,0,0,0,22.14,41.6Z"/><path class="cls-1" d="M30.92,39a2.93,2.93,0,0,1,1.52-.42v3.13h-.83a2.23,2.23,0,0,0-1.42.38,1.58,1.58,0,0,0-.47,1.3V47.1H26.78V38.68h2.94v1.49A3.83,3.83,0,0,1,30.92,39Z"/><path class="cls-1" d="M33.72,37.48a1.49,1.49,0,0,1,0-2.17,2,2,0,0,1,2.49,0,1.49,1.49,0,0,1,0,2.17,2.06,2.06,0,0,1-2.49,0Zm2.7,1.2V47.1H33.49V38.68Z"/><path class="cls-1" d="M38.16,40.6a3.76,3.76,0,0,1,1.51-1.5,4.57,4.57,0,0,1,2.21-.52,4.15,4.15,0,0,1,2.7.88A4,4,0,0,1,46,41.91H42.87a1,1,0,0,0-1-.83,1,1,0,0,0-.87.46,2.28,2.28,0,0,0-.33,1.34A2.32,2.32,0,0,0,41,44.23a1,1,0,0,0,.87.47,1,1,0,0,0,1-.83H46a4.07,4.07,0,0,1-1.41,2.45,4.15,4.15,0,0,1-2.7.88,4.57,4.57,0,0,1-2.21-.52,3.76,3.76,0,0,1-1.51-1.5,4.68,4.68,0,0,1-.54-2.3A4.63,4.63,0,0,1,38.16,40.6Z"/><path class="cls-1" d="M55.2,43.48H49.64a1.52,1.52,0,0,0,.38,1,1.18,1.18,0,0,0,.86.34,1.08,1.08,0,0,0,1-.66h3.13a3.68,3.68,0,0,1-.75,1.55,4,4,0,0,1-1.42,1.07,4.87,4.87,0,0,1-4.1-.13,3.78,3.78,0,0,1-1.52-1.5,4.68,4.68,0,0,1-.54-2.3,4.58,4.58,0,0,1,.54-2.28,3.73,3.73,0,0,1,1.5-1.5,5,5,0,0,1,4.43,0,3.7,3.7,0,0,1,1.5,1.46,4.48,4.48,0,0,1,.54,2.24A5.32,5.32,0,0,1,55.2,43.48Zm-3-1.42a1.07,1.07,0,0,0-.36-.85A1.36,1.36,0,0,0,51,40.9a1.3,1.3,0,0,0-.89.3,1.4,1.4,0,0,0-.45.86Z"/></g></g></svg>