<svg xmlns="http://www.w3.org/2000/svg" width="1024.144" height="379.65" viewBox="0 0 1024.144 379.65">
  <g id="Group_10" data-name="Group 10" transform="translate(0)">
    <g id="Group_8" data-name="Group 8" transform="translate(1024.144) rotate(90)">
      <path id="Path_1772" data-name="Path 1772" d="M143.609,45.811c1.254,8.1-3.721,30.814-32.816,28.232-31.061-2.759-36.4-16.4-60.508-28.46S0,47.533,0,47.533s18.939-30.772,47.453-29.39c18.259.885,28.1,16.947,37.207,16.094,7.959-1.9-4.8-6.07-11.176-14.579S69.218,0,69.218,0s19.3,12.8,39.536,16.5C124.119,19.3,140.9,28.353,143.609,45.811" transform="translate(0 100.086)" fill="#ed4c14"/>
      <path id="Path_1773" data-name="Path 1773" d="M85.972,26.025C81.92,37.165,68.1,37.814,57.387,35.411,35.2,30.432,10.156,10.7,0,10.7c0,0,12.334-4.465,30.8,5.5,14.358,7.753,27.01,5.126,29.784-2.126C62.645,7.034,50.561,0,50.561,0S92.8,7.253,85.972,26.025" transform="translate(42.263 122.271)" fill="#fff"/>
      <path id="Path_1774" data-name="Path 1774" d="M28.308,8.815c.18.748-2.338-2.339-10.643-2.339A167.511,167.511,0,0,0,0,7.644S8.94-.124,14.156.087c5.492-.635,12.594,2.2,14.153,8.729" transform="translate(28.38 105.173)" fill="#ed4c14"/>
      <path id="Path_1775" data-name="Path 1775" d="M169.281,8.59q13.357,8.584,21.126,24.941t7.769,38.984q0,34.62-16.219,57.108t-47.568,24.4V89.687q16.629-1.363,16.629-14.721a11.106,11.106,0,0,0-2.457-7.5q-2.449-2.858-7.086-2.861-6.809,0-10.765,6.951t-9.136,22.493a209.063,209.063,0,0,1-12.263,30.391,60.817,60.817,0,0,1-18.541,21.126q-12.26,9-31.892,9-18.809,0-32.029-9.678T6.813,118.447Q0,101.684,0,80.7,0,46.069,16.081,25.627T62.42,3.275V68.422Q47.163,69.794,47.158,80.964a8.792,8.792,0,0,0,2.316,6.272q2.319,2.449,6.951,2.451,6.275,0,10.223-6.951t9.133-21.672A232.455,232.455,0,0,1,88.731,30.4,63,63,0,0,1,107.538,9.132Q119.947,0,139.295,0a54.255,54.255,0,0,1,29.987,8.59" transform="translate(109.781 869.577)" fill="#fff"/>
      <path id="Path_1776" data-name="Path 1776" d="M139.3,0h51.524V22.9q0,63.244-62.972,63.241H87.505v19.083H37.075V86.139H0V25.621H37.075V.542h50.43V25.621H128.94q5.457,0,7.9-2.589t2.454-8.587Z" transform="translate(115.23 759.454)" fill="#fff"/>
      <path id="Path_1777" data-name="Path 1777" d="M6.133,76.875A41.567,41.567,0,0,1,22.894,60.249H1.905V0H155.652V60.249H134.663a41.6,41.6,0,0,1,16.764,16.626q6.134,10.908,6.133,25.9a58.153,58.153,0,0,1-9.406,32.441q-9.4,14.454-27.26,22.759-17.851,8.324-42.118,8.315t-42.115-8.315q-17.852-8.3-27.26-22.759A58.151,58.151,0,0,1,0,102.771q0-14.989,6.133-25.9M59.7,98.685q6.818,6.274,19.08,6.268T97.86,98.685A20.87,20.87,0,0,0,104.673,82.6,20.869,20.869,0,0,0,97.86,66.517q-6.808-6.27-19.083-6.268T59.7,66.517A20.9,20.9,0,0,0,52.88,82.6,20.9,20.9,0,0,0,59.7,98.685" transform="translate(150.398 584.989)" fill="#fff"/>
      <path id="Path_1778" data-name="Path 1778" d="M0,122.672l77.962-28.9L0,66.79V0L227.345,98.412v66.238l-81.231-38.708L0,190Z" transform="translate(152.305 390.898)" fill="#fff"/>
      <path id="Path_1779" data-name="Path 1779" d="M147.205,58.34V0H193V118.855H0V58.34Z" transform="translate(113.049 188.906)" fill="#fff"/>
      <rect id="Rectangle_18" data-name="Rectangle 18" width="153.746" height="60.515" transform="translate(152.305 116.124)" fill="#fff"/>
      <path id="Path_1780" data-name="Path 1780" d="M139.3,0h51.524V22.9q0,63.245-62.972,63.245H87.505v19.083H37.075V86.142H0V25.623H37.075V.542h50.43V25.623H128.94q5.457,0,7.9-2.589t2.454-8.587Z" transform="translate(115.23 0)" fill="#fff"/>
    </g>
  </g>
</svg>
